<?xml version="1.0" standalone="no"?>
<!DOCTYPE svg PUBLIC "-//W3C//DTD SVG 1.1//EN" "http://www.w3.org/Graphics/SVG/1.1/DTD/svg11.dtd">
<svg xmlns="http://www.w3.org/2000/svg">
<metadata>Copyright (C) 2018 by original authors @ fontello.com</metadata>
<defs>
<font id="cs-icon" horiz-adv-x="1000" >
<font-face font-family="cs-icon" font-weight="400" font-stretch="normal" units-per-em="1000" ascent="850" descent="-150" />
<missing-glyph horiz-adv-x="1000" />
<glyph glyph-name="add" unicode="&#xe800;" d="M542 308v-250h-84v250h-250v84h250v250h84v-250h250v-84h-250z" horiz-adv-x="1000" />

<glyph glyph-name="arrow-back" unicode="&#xe801;" d="M833 392h-508l233 233-58 58-333-333 333-333 58 58-233 233h508v84z" horiz-adv-x="1000" />

<glyph glyph-name="arrow-down" unicode="&#xe802;" d="M458 683v-508l-233 233-58-58 333-333 333 333-58 58-233-233v508h-84z" horiz-adv-x="1000" />

<glyph glyph-name="audio-mute" unicode="&#xe803;" d="M292 475v-250h166l209-208v666l-209-208h-166z" horiz-adv-x="1000" />

<glyph glyph-name="audio-off" unicode="&#xe804;" d="M688 350c0 74-43 137-105 168l0-92 102-102c2 8 3 17 3 26l0 0z m104 0c0-39-9-76-23-110l63-63c28 52 43 111 43 173 0 178-125 328-292 365l0-85c121-36 209-148 209-280z m-614 375l-53-53 197-197-197 0 0-250 167 0 208-208 0 280 177-177c-28-22-59-39-94-49l0-86c58 13 110 40 154 75l85-85 53 53-375 375-322 322z m322-42l-87-87 87-87 0 174z" horiz-adv-x="1000" />

<glyph glyph-name="audio-on" unicode="&#xe805;" d="M125 475l0-250 167 0 208-208 0 666-208-208-167 0 0 0z m563-125c0 75-42 138-105 167l0-334c63 30 105 92 105 167l0 0z m-105 367l0-88c121-37 209-146 209-279 0-133-88-242-209-279l0-88c167 38 292 188 292 367 0 179-125 329-292 367l0 0z" horiz-adv-x="1000" />

<glyph glyph-name="chevron-left" unicode="&#xe806;" d="M683 542l-58 58-250-250 250-250 58 58-191 192 191 192z" horiz-adv-x="1000" />

<glyph glyph-name="chevron-right" unicode="&#xe807;" d="M417 600l-59-58 192-192-192-192 59-58 250 250-250 250z" horiz-adv-x="1000" />

<glyph glyph-name="clear" unicode="&#xe808;" d="M792 583l-59 59-233-234-233 234-59-59 234-233-234-233 59-59 233 234 233-234 59 59-234 233 234 233z" horiz-adv-x="1000" />

<glyph glyph-name="delete" unicode="&#xe809;" d="M250 58c0-45 38-83 83-83l334 0c46 0 83 38 83 83l0 500-500 0 0-500 0 0z m542 625l-146 0-42 42-208 0-42-42-146 0 0-83 584 0 0 83 0 0z" horiz-adv-x="1000" />

<glyph glyph-name="download" unicode="&#xe80a;" d="M792 433l-167 0 0 250-250 0 0-250-167 0 292-291 292 291 0 0z m-584-375l0-83 584 0 0 83-584 0 0 0z" horiz-adv-x="1000" />

<glyph glyph-name="fast_forward" unicode="&#xe80b;" d="M167 100l354 250-354 250v-500z m375 500v-500l354 250-354 250z" horiz-adv-x="1000" />

<glyph glyph-name="fast_rewind" unicode="&#xe80c;" d="M458 100v500l-354-250 354-250z m21 250l354-250v500l-354-250z" horiz-adv-x="1000" />

<glyph glyph-name="highlight-on" unicode="&#xe80d;" d="M83 133l0-158 159 0 458 463-158 158-459-463 0 0z m738 425c17 17 17 42 0 59l-96 96c-17 16-42 16-58 0l-75-75 158-159 71 79 0 0z m-363-500l-83-83 542 0 0 83-459 0 0 0z" horiz-adv-x="1000" />

<glyph glyph-name="highlight" unicode="&#xe80e;" d="M125 133l0-158 158 0 459 463-159 158-458-463 0 0z m738 425c16 17 16 42 0 59l-96 96c-17 16-42 16-59 0l-75-75 159-159 71 79 0 0z" horiz-adv-x="1000" />

<glyph glyph-name="link" unicode="&#xe80f;" d="M261 111c-50 51-50 133 0 183l118 118-56 56-118-118c-81-81-81-213 0-295 82-81 214-81 295 0l118 118-56 56-118-118c-50-50-132-50-183 0z m151 92l235 235-59 59-235-235 59-59z m88 442l-118-118 56-56 118 118c50 50 132 50 183 0 50-51 50-133 0-183l-118-118 56-56 118 118c81 81 81 213 0 295-82 81-214 81-295 0z" horiz-adv-x="1000" />

<glyph glyph-name="location" unicode="&#xe810;" d="M500 767c-161 0-292-131-292-292 0-219 292-542 292-542 0 0 292 323 292 542 0 161-131 292-292 292z m0-396c-57 0-104 47-104 104 0 58 47 104 104 104 58 0 104-46 104-104 0-57-46-104-104-104z" horiz-adv-x="1000" />

<glyph glyph-name="menu" unicode="&#xe811;" d="M125 100l750 0 0 83-750 0 0-83 0 0z m0 208l750 0 0 84-750 0 0-84 0 0z m0 292l0-83 750 0 0 83-750 0 0 0z" horiz-adv-x="1000" />

<glyph glyph-name="more-hor" unicode="&#xe812;" d="M250 433c-46 0-83-37-83-83 0-46 37-83 83-83 46 0 83 37 83 83 0 46-37 83-83 83z m500 0c-46 0-83-37-83-83 0-46 37-83 83-83 46 0 83 37 83 83 0 46-37 83-83 83z m-250 0c-46 0-83-37-83-83 0-46 37-83 83-83 46 0 83 37 83 83 0 46-37 83-83 83z" horiz-adv-x="1000" />

<glyph glyph-name="more-ver" unicode="&#xe813;" d="M500 517c46 0 83 37 83 83 0 46-37 83-83 83-46 0-83-37-83-83 0-46 37-83 83-83z m0-84c-46 0-83-37-83-83 0-46 37-83 83-83 46 0 83 37 83 83 0 46-37 83-83 83z m0-250c-46 0-83-37-83-83 0-46 37-83 83-83 46 0 83 37 83 83 0 46-37 83-83 83z" horiz-adv-x="1000" />

<glyph glyph-name="forward-1hour" unicode="&#xe814;" d="M283 100l354 250-354 250 0-500z m-43 500l0-500-83 0 0 500 83 0z m387-121l-40 0 0 194-46-39-23 28 73 62 36 0 0-245z m117 0l-40 0 0 262 40 0 0-119 1 0c1 3 3 7 6 10 3 3 7 6 11 9 4 3 8 5 13 6 5 2 11 3 17 3 10 0 19-2 26-6 8-4 14-9 19-15 4-6 8-13 10-21 2-8 3-17 3-25l0-104-39 0 0 91c0 5-1 10-1 15-1 5-2 10-4 14-3 5-5 8-9 11-4 3-9 4-16 4-6 0-12-1-16-4-5-2-9-6-12-10-3-4-5-9-7-14-1-5-2-11-2-16l0-91z" horiz-adv-x="1000" />

<glyph glyph-name="pause" unicode="&#xe815;" d="M250 58l167 0 0 584-167 0 0-584z m333 584l0-584 167 0 0 584-167 0z" horiz-adv-x="1000" />

<glyph glyph-name="pdf" unicode="&#xe816;" d="M833 767l-500 0c-45 0-83-38-83-84l0-500c0-45 38-83 83-83l500 0c46 0 84 38 84 83l0 500c0 46-38 84-84 84z m-354-313c0-34-28-62-62-62l-42 0 0-84-62 0 0 250 104 0c34 0 62-28 62-62l0-42z m209-83c0-35-28-63-63-63l-104 0 0 250 104 0c35 0 63-28 63-62l0-125z m166 125l-62 0 0-42 62 0 0-62-62 0 0-84-63 0 0 250 125 0 0-62z m-479-42l42 0 0 42-42 0 0-42z m-208 146l-84 0 0-583c0-46 38-84 84-84l583 0 0 84-583 0 0 583z m416-229l42 0 0 125-42 0 0-125z" horiz-adv-x="1000" />

<glyph glyph-name="play" unicode="&#xe817;" d="M292 642l458-292-458-292v584z" horiz-adv-x="1000" />

<glyph glyph-name="search" unicode="&#xe818;" d="M691 271l-35 0-13 12c44 51 70 117 70 188 0 159-129 288-288 288-160 0-289-129-289-288 0-159 129-288 289-288 71 0 137 26 187 69l12-12 0-35 222-221 66 66-221 221z m-266 0c-111 0-200 90-200 200 0 110 89 199 200 199 110 0 199-89 199-199 0-110-89-200-199-200z" horiz-adv-x="1000" />

<glyph glyph-name="share" unicode="&#xe819;" d="M750 475c-33 0-62-12-83-33l-296 171c4 8 4 20 4 29 0 71-54 125-125 125-71 0-125-54-125-125 0-71 54-125 125-125 33 0 63 12 83 33l296-171c-4-8-4-21-4-29 0-8 0-21 4-29l-296-175c-20 21-50 33-83 33-67 0-121-54-121-121 0-66 54-121 121-121 67 0 121 55 121 121 0 9 0 17-4 30l296 175c20-21 50-34 83-34 71 0 125 54 125 125 0 71-50 121-121 121l0 0z" horiz-adv-x="1000" />

<glyph glyph-name="skip_next" unicode="&#xe81a;" d="M250 100l354 250-354 250v-500z m417 500v-500h83v500h-83z" horiz-adv-x="1000" />

<glyph glyph-name="skip_previous" unicode="&#xe81b;" d="M250 600h83v-500h-83v500z m146-250l354-250v500l-354-250z" horiz-adv-x="1000" />

<glyph glyph-name="stop" unicode="&#xe81c;" d="M250 600h500v-500h-500v500z" horiz-adv-x="1000" />

<glyph glyph-name="text" unicode="&#xe81d;" d="M83 225l834 0 0 83-834 0 0-83 0 0z m584-167l0 84-584 0 0-84 584 0z m250 334l0 83-834 0 0-83 834 0z m-834 250l0-84 834 0 0 84-834 0 0 0z" horiz-adv-x="1000" />

<glyph glyph-name="home" unicode="&#xe81e;" d="M417 17v250h166v-250h209v333h125l-417 375-417-375h125v-333h209z" horiz-adv-x="1000" />

<glyph glyph-name="graphic_eq" unicode="&#xe81f;" d="M292 100h83v500h-83v-500z m166-167h84v834h-84v-834z m-333 334h83v166h-83v-166z m500-167h83v500h-83v-500z m167 333v-166h83v166h-83z" horiz-adv-x="1000" />

<glyph glyph-name="photo_camera" unicode="&#xe820;" d="M375 767l-76-84h-132c-46 0-84-37-84-83v-500c0-46 38-83 84-83h666c46 0 84 37 84 83v500c0 46-38 83-84 83h-132l-76 84h-250z m125-625c-115 0-208 93-208 208s93 208 208 208 208-93 208-208-93-208-208-208z" horiz-adv-x="1000" />

<glyph glyph-name="zoom_in" unicode="&#xe821;" d="M646 267h-33l-12 11c41 47 66 109 66 176 0 150-122 271-271 271s-271-121-271-271 121-271 271-271c67 0 129 25 176 66l11-12v-33l209-208 62 62-208 209z m-250 0c-104 0-188 83-188 187s84 188 188 188 187-84 187-188-83-187-187-187z m104 166h-83v-83h-42v83h-83v42h83v83h42v-83h83v-42z" horiz-adv-x="1000" />

<glyph glyph-name="zoom_out" unicode="&#xe822;" d="M646 267h-33l-12 11c41 47 66 109 66 176 0 150-122 271-271 271s-271-121-271-271 121-271 271-271c67 0 129 25 176 66l11-12v-33l209-208 62 62-208 209z m-250 0c-104 0-188 83-188 187s84 188 188 188 187-84 187-188-83-187-187-187z m-104 208h208v-42h-208v42z" horiz-adv-x="1000" />

<glyph glyph-name="print" unicode="&#xe823;" d="M792 517h-584c-69 0-125-56-125-125v-250h167v-167h500v167h167v250c0 69-56 125-125 125z m-125-459h-334v209h334v-209z m125 292c-23 0-42 19-42 42s19 41 42 41 41-18 41-41-18-42-41-42z m-42 375h-500v-167h500v167z" horiz-adv-x="1000" />

<glyph glyph-name="arrow_forward" unicode="&#xe824;" d="M500 683l-59-58 233-233h-507v-84h507l-233-233 59-58 333 333-333 333z" horiz-adv-x="1000" />

<glyph glyph-name="subdirectory_arrow_right" unicode="&#xe825;" d="M792 225l-250-250-59 59 149 149h-465v500h83v-416h382l-149 149 59 59 250-250z" horiz-adv-x="1000" />

<glyph glyph-name="fullscreen_exit" unicode="&#xe826;" d="M208 183h125v-125h84v209h-209v-84z m125 334h-125v-84h209v209h-84v-125z m250-459h84v125h125v84h-209v-209z m84 459v125h-84v-209h209v84h-125z" horiz-adv-x="1000" />

<glyph glyph-name="fullscreen" unicode="&#xe827;" d="M292 267h-84v-209h209v84h-125v125z m-84 166h84v125h125v84h-209v-209z m500-291h-125v-84h209v209h-84v-125z m-125 500v-84h125v-125h84v209h-209z" horiz-adv-x="1000" />

<glyph glyph-name="access_time" unicode="&#xe828;" d="M500 767c-230 0-417-187-417-417s187-417 417-417c230 0 417 187 417 417s-187 417-417 417z m0-750c-184 0-333 149-333 333s149 333 333 333 333-149 333-333-149-333-333-333z m21 541h-63v-250l219-131 31 51-187 112v218z" horiz-adv-x="1000" />

<glyph glyph-name="collections" unicode="&#xe829;" d="M917 183v500c0 46-38 84-84 84h-500c-45 0-83-38-83-84v-500c0-45 38-83 83-83h500c46 0 84 38 84 83z m-459 167l85-113 124 155 166-209h-500l125 167z m-375 250v-583c0-46 38-84 84-84h583v84h-583v583h-84z" horiz-adv-x="1000" />

<glyph glyph-name="forward_10" unicode="&#xe82a;" d="M167 308c0-183 150-333 333-333s333 150 333 333h-83c0-137-112-250-250-250s-250 113-250 250 113 250 250 250v-166l208 208-208 208v-166c-183 0-333-150-333-334z m283-125h-33v138l-42-13v30l75 25h4v-180h-4z m179 75c0-12 0-25-4-33l-12-25c0 0-13-12-21-12s-17-5-25-5-17 0-25 5-13 8-21 12-8 13-13 25-4 21-4 33v30c0 12 0 25 4 33l13 25c0 0 12 12 21 12s16 5 25 5 16 0 25-5 12-8 21-12 8-13 12-25 4-21 4-33c0 0 0-30 0-30z m-33 34v21c0 0-4 8-4 12s-4 4-9 8-8 5-12 5-8 0-13-5l-8-8c0 0-4-8-4-12v-84c0 0 4-8 4-12s4-4 8-9 9-4 13-4 8 0 12 4l9 9c0 0 4 8 4 12v63z" horiz-adv-x="1000" />

<glyph glyph-name="replay_10" unicode="&#xe82b;" d="M500 642v166l-208-208 208-208v166c138 0 250-112 250-250s-112-250-250-250-250 113-250 250h-83c0-183 150-333 333-333s333 150 333 333-150 334-333 334z m-46-459h-37v138l-42-13v30l75 25h4c0 0 0-180 0-180z m179 75c0-12 0-25-4-33l-12-25c0 0-13-12-21-12s-17-5-25-5-17 0-25 5-13 8-21 12-8 13-12 25-5 21-5 33v30c0 12 0 25 5 33l12 25c0 0 13 12 21 12s17 5 25 5 17 0 25-5c8-4 12-8 21-12s8-13 12-25 4-21 4-33c0 0 0-30 0-30z m-37 34v21c0 0-4 8-4 12s-4 4-9 8-8 5-12 5-8 0-13-5l-8-8c0 0-4-8-4-12v-84c0 0 4-8 4-12s4-4 8-9 9-4 13-4 8 0 12 4l9 9c0 0 4 8 4 12v63z" horiz-adv-x="1000" />

<glyph glyph-name="videocam" unicode="&#xe82c;" d="M708 413v145c0 23-18 42-41 42h-500c-23 0-42-19-42-42v-416c0-23 19-42 42-42h500c23 0 41 19 41 42v146l167-167v458l-167-166z" horiz-adv-x="1000" />

<glyph glyph-name="forward-1sec" unicode="&#xe82d;" d="M283 100l354 250-354 250 0-500z m-43 500l0-500-83 0 0 500 83 0z m551 1c-4 5-9 9-15 12-6 4-13 6-20 6-7 0-12-2-18-4-5-3-8-8-8-14 0-7 3-11 9-14 6-3 15-5 26-8 6-1 12-3 18-6 6-2 11-5 16-9 5-4 9-8 12-14 3-6 5-13 5-21 0-10-2-18-5-25-4-7-9-13-15-17-6-5-13-8-21-10-8-2-16-3-25-3-12 0-24 2-36 7-12 5-21 12-29 20l26 26c4-6 10-11 17-15 7-4 15-6 24-6 2 0 5 1 8 1 3 1 6 2 9 4 2 1 4 3 6 6 1 2 2 5 2 9 0 7-3 12-9 15-6 3-15 6-27 9-6 1-12 3-18 5-5 2-10 5-15 9-4 3-8 8-10 13-3 5-4 12-4 20 0 9 2 17 5 24 4 6 9 12 15 16 6 4 12 8 20 10 7 2 15 3 23 3 11 0 22-2 33-6 11-5 20-11 26-19l-25-24z m-164-122l-40 0 0 194-46-39-23 28 73 62 36 0 0-245z" horiz-adv-x="1000" />

<glyph glyph-name="rewind-1hour" unicode="&#xe82e;" d="M716 100l-354 250 354 250 0-500z m126 0l-83 0 0 500 83 0 0-500z m-612 379l-39 0 0 194-47-39-23 28 73 62 36 0 0-245z m118 0l-40 0 0 262 40 0 0-119 0 0c2 3 4 7 7 10 3 3 6 6 10 9 4 3 9 5 14 6 5 2 10 3 16 3 11 0 20-2 27-6 7-4 13-9 18-15 5-6 8-13 11-21 2-8 3-17 3-25l0-104-40 0 0 91c0 5 0 10-1 15 0 5-2 10-4 14-2 5-5 8-9 11-4 3-9 4-15 4-7 0-12-1-17-4-4-2-8-6-11-10-3-4-6-9-7-14-2-5-2-11-2-16l0-91z" horiz-adv-x="1000" />

<glyph glyph-name="map" unicode="&#xe82f;" d="M854 725l-6-1-223-86-250 87-235-79c-9-3-15-11-15-20l0-630c0-12 9-21 21-21l7 1 222 87 250-88 235 79c9 3 15 11 15 20l0 630c0 12-9 21-21 21z m-229-667l-250 88 0 496 250-88 0-496z" horiz-adv-x="1000" />

<glyph glyph-name="abstract" unicode="&#xe830;" d="M501 184l0-168-418 0 0 168 418 0z m373 251l0-168-791 0 0 168 791 0z m0 248l0-168-791 0 0 168 791 0z" horiz-adv-x="1000" />

<glyph glyph-name="column" unicode="&#xe831;" d="M416 184l0-168-333 0 0 168 333 0z m459 0l0-168-333 0 0 168 333 0z m-459 251l0-168-333 0 0 168 333 0z m459 0l0-168-333 0 0 168 333 0z m-459 248l0-168-333 0 0 168 333 0z m459 0l0-168-333 0 0 168 333 0z" horiz-adv-x="1000" />

<glyph glyph-name="outline" unicode="&#xe832;" d="M875 184l0-168-500 0 0 168 500 0z m0 251l0-168-500 0 0 168 500 0z m-293 248l0-168-499 0 0 168 499 0z" horiz-adv-x="1000" />

<glyph glyph-name="rewind-1sec" unicode="&#xe833;" d="M716 100l-354 250 354 250 0-500z m126 0l-83 0 0 500 83 0 0-500z m-448 501c-3 5-8 9-14 12-7 4-13 6-21 6-6 0-12-2-17-4-5-3-8-8-8-14 0-7 3-11 9-14 6-3 14-5 25-8 6-1 12-3 18-6 6-2 12-5 17-9 5-4 9-8 12-14 3-6 5-13 5-21 0-10-2-18-6-25-4-7-8-13-14-17-7-5-14-8-22-10-8-2-16-3-25-3-12 0-24 2-36 7-11 5-21 12-29 20l26 26c5-6 11-11 18-15 7-4 15-6 23-6 3 0 6 1 9 1 3 1 6 2 8 4 3 1 5 3 6 6 2 2 3 5 3 9 0 7-3 12-10 15-6 3-15 6-27 9-6 1-12 3-17 5-6 2-11 5-15 9-5 3-8 8-11 13-2 5-4 12-4 20 0 9 2 17 6 24 3 6 8 12 14 16 6 4 13 8 20 10 8 2 15 3 23 3 12 0 23-2 34-6 11-5 19-11 26-19l-26-24z m-164-122l-39 0 0 194-47-39-23 28 73 62 36 0 0-245z" horiz-adv-x="1000" />
</font>
</defs>
</svg>
